# xmcd
#
# Track frame offsets: 
#        150
#        19717
#        34142
#        50695
#        68496
#        84313
#        104480
#        128437
#        150511
#        176578
#        189597
#        209985
#        229098
#
# Disc length: 3374 seconds
#
# Revision: 0
# Processed by: cddbd v1.5.2PL0 Copyright (c) Steve Scherf et al.
# Submitted via: ExactAudioCopy v0.99pb3
#
DISCID=a90d2c0d
DTITLE=Earl Thomas - Introducing The Blues Ambassadors
DYEAR=2010
DGENRE=Blues
TTITLE0=I'll Be Alright
TTITLE1=Broken Hearted
TTITLE2=All Your Love
TTITLE3=One Monkey Don't Stop No Show
TTITLE4=Never Can Tell
TTITLE5=Don't Do Me This Way Again
TTITLE6=Ask Me The Time
TTITLE7=Standing In The Rain
TTITLE8=Jet Airliner
TTITLE9=She Fooled Me
TTITLE10=All Talk No Action
TTITLE11=How Come
TTITLE12=Love Is A Wonderful Thing
EXTD=
EXTT0=
EXTT1=
EXTT2=
EXTT3=
EXTT4=
EXTT5=
EXTT6=
EXTT7=
EXTT8=
EXTT9=
EXTT10=
EXTT11=
EXTT12=
PLAYORDER=
